Coordinates
version=1
nRows=14
nColumns=40
inDegrees=yes

Units are S.I. units (second, meters, Newtons, ...)
If the header above contains a line with 'inDegrees', this indicates whether rotational values are in degrees (yes) or radians (no).

endheader
time	pelvis_tilt	pelvis_list	pelvis_rotation	pelvis_tx	pelvis_ty	pelvis_tz	hip_flexion_r	hip_adduction_r	hip_rotation_r	knee_angle_r	knee_angle_r_beta	ankle_angle_r	subtalar_angle_r	mtp_angle_r	hip_flexion_l	hip_adduction_l	hip_rotation_l	knee_angle_l	knee_angle_l_beta	ankle_angle_l	subtalar_angle_l	mtp_angle_l	lumbar_extension	lumbar_bending	lumbar_rotation	arm_flex_r	arm_add_r	arm_rot_r	elbow_flex_r	pro_sup_r	wrist_flex_r	wrist_dev_r	arm_flex_l	arm_add_l	arm_rot_l	elbow_flex_l	pro_sup_l	wrist_flex_l	wrist_dev_l
      0.00000000	    -32.09577678	     -8.44283557	     -2.80775037	     -0.30388529	      1.19492686	      0.03258123	     96.51241311	     -2.28605801	     -1.69829861	     92.47599469	      1.61401059	      6.17884031	    -20.54396953	      0.00000000	     61.51300160	    -12.04061177	      7.14478099	     45.91597338	      0.80138491	    -15.69751870	    -17.31142926	      0.00000000	    -46.03248752	     12.54772319	      8.53485686	     89.92028042	     -6.17605151	     13.05378702	     37.21485654	     87.43128931	      0.00000000	      0.00000000	     89.89096529	    -11.71583287	     35.91283884	     26.27146154	     65.33403706	      0.00000000	      0.00000000
      0.00833333	    -32.09122254	     -8.08904298	     -2.62258996	     -0.30402490	      1.19522378	      0.03232193	     96.00833897	     -2.40047191	     -1.49224407	     90.59344589	      1.58115391	      6.48347323	    -20.75306928	      0.00000000	     61.98358051	    -11.70449241	      7.10383070	     47.93496258	      0.83662292	    -15.30502205	    -17.41416103	      0.00000000	    -45.96038769	     12.38942734	      8.11649876	     89.91936485	     -6.12626272	     13.02147447	     37.22596050	     87.42822061	      0.00000000	      0.00000000	     89.89495807	    -11.75170487	     35.83380238	     26.29850371	     65.31021389	      0.00000000	      0.00000000
      0.01666667	    -32.39357218	     -8.00550041	     -2.69531544	     -0.30459281	      1.19495404	      0.03268259	     95.70962771	     -2.27388460	     -1.63405528	     88.51659381	      1.54490600	      6.57633478	    -21.39549941	      0.00000000	     62.98018708	    -11.75668789	      7.19534137	     50.23811622	      0.87682054	    -14.43967532	    -17.33640686	      0.00000000	    -45.61272603	     12.28472209	      8.08193591	     89.91975391	     -6.09637210	     13.01482833	     37.01019100	     87.42514716	      0.00000000	      0.00000000	     89.89485306	    -11.73832209	     35.83582162	     26.26777177	     65.26507495	      0.00000000	      0.00000000
      0.02500000	    -32.34542590	     -7.71059054	     -2.46711423	     -0.30478918	      1.19498698	      0.03242282	     95.05281334	     -2.47067710	     -1.58136277	     86.39707660	      1.50791345	      6.32246292	    -21.78541376	      0.00000000	     63.67644282	    -11.45925382	      7.15721396	     52.64706866	      0.91886469	    -13.75788949	    -17.27074301	      0.00000000	    -45.56639060	     12.17462549	      7.68744753	     89.91947090	     -6.07875242	     12.99569284	     36.97865466	     87.41283362	      0.00000000	      0.00000000	     89.89617094	    -11.76282418	     35.81099800	     26.36409308	     65.25589011	      0.00000000	      0.00000000
      0.03333333	    -32.42747860	     -7.90119392	     -2.28883000	     -0.30516431	      1.19501127	      0.03281838	     94.25971495	     -2.44798620	     -1.96778733	     84.04761549	      1.46690762	      5.67088016	    -23.05590669	      0.00000000	     64.69105405	    -11.56726188	      7.50600344	     55.12211292	      0.96206236	    -12.77264452	    -16.41985080	      0.00000000	    -45.48903063	     12.38146919	      7.70938055	     89.91929688	     -6.13593341	     13.03832319	     36.97881476	     87.39699233	      0.00000000	      0.00000000	     89.89785607	    -11.75307811	     35.91294284	     26.31022415	     65.30135012	      0.00000000	      0.00000000
      0.04166667	    -32.27126491	     -7.48795677	     -1.94202150	     -0.30533228	      1.19503968	      0.03256594	     93.30697795	     -2.70112116	     -1.70643833	     81.82895799	      1.42818474	      5.43330389	    -23.11436215	      0.00000000	     65.37878582	    -11.11050804	      7.42179835	     57.59937249	      1.00529870	    -12.25341611	    -16.45547943	      0.00000000	    -45.50564336	     12.21417653	      7.13921146	     89.91824442	     -6.11164482	     13.00951086	     36.98724832	     87.39492034	      0.00000000	      0.00000000	     89.89998089	    -11.79002996	     35.76125555	     26.41664956	     65.28987877	      0.00000000	      0.00000000
      0.05000000	    -32.31141520	     -7.54488216	     -1.67794923	     -0.30575917	      1.19483223	      0.03280762	     92.39939999	     -2.80147501	     -2.01812748	     79.30291086	      1.38409690	      4.26010650	    -24.07501999	      0.00000000	     66.49578286	    -11.05043810	      7.68138164	     60.24330024	      1.05144394	    -11.16104916	    -15.73760587	      0.00000000	    -45.40259651	     12.35940896	      6.99252053	     89.91840416	     -6.13412699	     13.01936544	     36.89024687	     87.38900398	      0.00000000	      0.00000000	     89.90042649	    -11.76399333	     35.63364222	     26.42915945	     65.42796658	      0.00000000	      0.00000000
      0.05833333	    -32.13155739	     -7.18922775	     -1.27080880	     -0.30592342	      1.19482339	      0.03255075	     91.28387363	     -3.15326046	     -1.87320467	     76.92339429	      1.34256650	      3.39341897	    -24.24795453	      0.00000000	     67.30789744	    -10.53926139	      7.71909998	     62.84051751	      1.09677393	    -10.41424347	    -15.67489822	      0.00000000	    -45.44757910	     12.25475707	      6.43880915	     89.91770378	     -6.12917063	     12.99114461	     36.86017057	     87.37053749	      0.00000000	      0.00000000	     89.90176208	    -11.79482662	     35.46421121	     26.62472552	     65.48010722	      0.00000000	      0.00000000
      0.06666667	    -31.89353725	     -6.79879960	     -0.81302413	     -0.30602015	      1.19465708	      0.03229036	     90.03973155	     -3.56349649	     -1.74788811	     74.54449095	      1.30104681	      2.60281774	    -24.27590463	      0.00000000	     68.14438886	     -9.99828176	      7.68415389	     65.52021556	      1.14354349	     -9.82926551	    -15.62336381	      0.00000000	    -45.52147403	     12.13904204	      5.81049625	     89.91666651	     -6.11152179	     12.98660800	     36.79361939	     87.36057725	      0.00000000	      0.00000000	     89.90335626	    -11.84485914	     35.33734591	     26.78630395	     65.51688585	      0.00000000	      0.00000000
      0.07500000	    -31.86736377	     -7.05196401	     -0.35437646	     -0.30641350	      1.19451929	      0.03265589	     88.68160136	     -3.61768655	     -2.07868760	     71.85467503	      1.25410066	      1.18803852	    -25.71917556	      0.00000000	     69.42316667	     -9.87273165	      8.20398072	     68.19547556	      1.19023558	     -8.96706686	    -14.68835059	      0.00000000	    -45.49851977	     12.51672551	      5.67301853	     89.91627099	     -6.13629792	     12.95241438	     36.74745698	     87.34397515	      0.00000000	      0.00000000	     89.90490096	    -11.81933787	     35.14800987	     26.85789891	     65.82177819	      0.00000000	      0.00000000
      0.08333333	    -31.64756528	     -6.57954614	      0.12497895	     -0.30653806	      1.19446094	      0.03233725	     87.28359634	     -4.02903658	     -1.83086258	     69.32849650	      1.21001053	      0.26170261	    -25.47267208	      0.00000000	     70.33739053	     -9.26076480	      8.09264657	     70.82022775	      1.23604615	     -8.51200021	    -14.66838031	      0.00000000	    -45.55585711	     12.35016946	      4.95232448	     89.91496426	     -6.09657495	     12.93812691	     36.68913492	     87.33487695	      0.00000000	      0.00000000	     89.90770855	    -11.88084088	     35.02983194	     27.01863270	     65.85174810	      0.00000000	      0.00000000
      0.09166667	    -31.38839447	     -6.20708182	      0.57528718	     -0.30649661	      1.19430370	      0.03211078	     85.75822435	     -4.43830385	     -1.78931776	     66.76986229	      1.16535394	     -1.01563277	    -25.37682563	      0.00000000	     71.30777131	     -8.68642732	      8.09734988	     73.52194128	      1.28319995	     -7.90462618	    -14.64111213	      0.00000000	    -45.65982243	     12.22785246	      4.34509040	     89.91481245	     -6.07782240	     12.86055397	     36.52964598	     87.30771966	      0.00000000	      0.00000000	     89.90868564	    -11.91022990	     34.92532534	     27.22558506	     65.92305475	      0.00000000	      0.00000000
      0.10000000	    -31.26430022	     -6.60958020	      1.02517417	     -0.30662985	      1.19423269	      0.03257874	     84.12547255	     -4.47249881	     -2.41197054	     63.94131997	      1.11598656	     -3.05657081	    -26.92660789	      0.00000000	     72.64906500	     -8.58400823	      8.77458022	     76.15958146	      1.32923545	     -7.21140601	    -14.02706387	      0.00000000	    -45.75990208	     12.69859280	      4.33372721	     89.91332094	     -6.07041034	     12.66020074	     36.49000267	     87.31243926	      0.00000000	      0.00000000	     89.91008149	    -11.87363958	     34.67919714	     27.35038282	     66.36908315	      0.00000000	      0.00000000
      0.10833333	    -31.09240356	     -6.10722725	      1.50249439	     -0.30664504	      1.19422346	      0.03223011	     82.54864123	     -4.94365144	     -2.24685949	     61.30654750	      1.07000111	     -4.11563470	    -26.52732356	      0.00000000	     73.66898825	     -7.90929694	      8.60131194	     78.63834740	      1.37249808	     -6.88512440	    -13.94381213	      0.00000000	    -45.77904394	     12.51101543	      3.57201268	     89.91218278	     -5.99321761	     12.61773813	     36.33246807	     87.29377787	      0.00000000	      0.00000000	     89.91294948	    -11.93829957	     34.60389178	     27.50628246	     66.41327816	      0.00000000	      0.00000000
